#!OML:ASF E:/inclinewalkrobotboard/Project1/Captureday1/Session1/subject1.ASF
:FULLY-SPECIFIED
:DEGREES
276
root 0 0 0 -0.8802301381957349 -2.799100858672615 -2.487522880417803
lowerback 9.328034944395853 0.35114008121360707 0.6531197995131506
upperback -0.06704119870405734 0.6821328896258286 1.7433135484016198
thorax -5.199641513200105 0.3550301274726017 1.3708532776107978
lowerneck -16.441040012049278 -2.9583760401829715 -1.9309304140026837
upperneck 19.90136397375977 -3.792366385370674 0.7058593174650558
head 9.05430265856162 -1.8406940637523275 0.0832670418668402
rclavicle -6.567129109586724E-16 -4.814619096262752E-16
rhumerus -23.57086384404097 -18.88735059602543 -74.81822073077339
rradius 27.042775784785142
rwrist 6.56139155706699
rhand -15.737911863935352 20.908664139302992
rfingers 7.125020000000031
rthumb 10.430374990221408 -8.560705390262076
lclavicle -6.526802861161573E-16 -3.264947311849123E-16
lhumerus -29.47234650185561 1.4724760834501875 77.73968843574127
lradius 28.79550997399618
lwrist 3.014132923934321
lhand -23.616163712341812 23.330004610426982
lfingers 7.1250200000000365
lthumb 2.7946107204153243 52.98509748302384
rfemur -1.4835672931379378 -9.37657994962261 12.792896362239176
rtibia 39.04180834303003
rfoot -9.123862722292323 -8.352985813576938
rtoes 6.58558700510898
lfemur -14.427592749367832 -0.4576722139406151 -20.828269918764654
ltibia 34.394135256335964
lfoot -9.240233389094099 -0.33959730674314415
ltoes -1.9673307864008063
277
root 0 0 0 -0.880246898134935 -2.7990886790760534 -2.487514276328306
lowerback 9.32804210637729 0.35113872579015604 0.6531181406893505
upperback -0.06703604571418431 0.6821304400738735 1.7433138386695166
thorax -5.199640905607148 0.35502901226516376 1.3708541908562055
lowerneck -16.44104221752751 -2.958378027918509 -1.9309323783481323
upperneck 19.90136241028486 -3.7923691791016 0.7058581240575577
head 9.054302296125224 -1.840695333716822 0.08326676507588382
rclavicle -6.567110518670067E-16 -4.814616768058195E-16
rhumerus -23.570820043691178 -18.887354192046473 -74.81820287839881
rradius 27.042775003156116
rwrist 6.5614140677234545
rhand -15.737897474358569 20.908651681357142
rfingers 7.125020000000031
rthumb 10.430388524858353 -8.560715600437334
lclavicle -6.52684314183811E-16 -3.2649390734272203E-16
lhumerus -29.47239461259455 1.4724709052806206 77.73975765665361
lradius 28.795494237572573
lwrist 3.0141617071623816
lhand -23.61622107472771 23.330005556352315
lfingers 7.1250200000000365
lthumb 2.7945552123380217 52.985105149369396
rfemur -1.483059976134328 -9.377152625613164 12.79235075289212
rtibia 39.04174048983314
rfoot -9.123949476273435 -8.353063889991464
rtoes 6.5856709497897015
lfemur -14.427668826787233 -0.457649279117085 -20.828286999197076
ltibia 34.39416772365893
lfoot -9.240253588317776 -0.3395614715630124
ltoes -1.9673033656908316
278
root 0 0 0 -0.8802655382147329 -2.7990749051557327 -2.4875049800897413
lowerback 9.328050069284139 0.35113723733947255 0.6531165435170987
upperback -0.06703029320472886 0.6821278746732363 1.7433141643524714
thorax -5.199640079997378 0.35502782824034584 1.3708550729195523
lowerneck -16.441044699404795 -2.958380365115212 -1.930934563718972
upperneck 19.90136081483576 -3.7923723177520445 0.705856673593023
head 9.054301975439841 -1.8406968398122578 0.0832664079948825
rclavicle -6.567092398450712E-16 -4.814614798217925E-16
rhumerus -23.570773814024676 -18.887358089611975 -74.81818275403586
rradius 27.042774393385614
rwrist 6.561437606061428
rhand -15.737881698322488 20.908638136714416
rfingers 7.125020000000031
rthumb 10.43040341113595 -8.56072676564337
lclavicle -6.526881026125879E-16 -3.2649310186145333E-16
lhumerus -29.472440687737468 1.4724658498309964 77.73982424106062
lradius 28.795479230440034
lwrist 3.0141894727543104
lhand -23.616276041161495 23.330006374560632
lfingers 7.1250200000000365
lthumb 2.7945020339836724 52.985112406643914
rfemur -1.4825836158621115 -9.37768939221364 12.791839792180312
rtibia 39.04167425778047
rfoot -9.124031527200644 -8.353137185175
rtoes 6.585748983233227
lfemur -14.427741954724269 -0.45762721341093027 -20.82830342797583
ltibia 34.394199038169944
lfoot -9.240272908580799 -0.33952702929796175
ltoes -1.9672770456411648
279
root 0 0 0 -0.8802856769822078 -2.7990598297610756 -2.4874951296314904
lowerback 9.328058664530126 0.35113563986246554 0.6531149989270317
upperback -0.06702406396451188 0.6821252180332332 1.7433145214884362
thorax -5.1996390743263605 0.35502658917994323 1.3708559310303525
lowerneck -16.44104739779635 -2.9583829892358566 -1.9309369286993698
upperneck 19.9013592063137 -3.7923757363209063 0.7058550130327808
head 9.054301693189219 -1.8406985407565615 0.08326598503510074
rclavicle -6.567074785314405E-16 -4.814613138962959E-16
rhumerus -23.570725886155984 -18.88736221018344 -74.81816088339906
rradius 27.042773929914517
rwrist 6.561461837610079
rhand -15.73786488147389 20.908623784409244
rfingers 7.125020000000031
rthumb 10.43041931583163 -8.56073864574607
lclavicle -6.526916654575269E-16 -3.2649231736975027E-16
lhumerus -29.472484740309845 1.4724609332941476 77.73988816448835
lradius 28.79546493661179
lwrist 3.0142161965616943
lhand -23.616328629885693 23.33000707988118
lfingers 7.1250200000000365
lthumb 2.7944511663691713 52.98511927206977
rfemur -1.4821358250676013 -9.378193082785174 12.791360720102873
rtibia 39.04160968342524
rfoot -9.124109201416143 -8.353206068849985
rtoes 6.585821613138709
lfemur -14.427812300843236 -0.45760596918705687 -20.82831924157057
ltibia 34.394229255679214
lfoot -9.240291407290862 -0.3394939002707815
ltoes -1.967251760446734
280
root 0 0 0 -0.8803069862770307 -2.7990437093881795 -2.487484846002527
lowerback 9.328067748266083 0.3511339547405766 0.6531135001587112
upperback -0.06701746324308822 0.6821224922150648 1.7433149060467932
thorax -5.199637921454981 0.3550253073717437 1.3708567702993073
lowerneck -16.441050262138443 -2.9583858456760272 -1.9309394369735196
upperneck 19.901357599492115 -3.792379378099041 0.7058531829656554
head 9.0543014460581 -1.840700400358665 0.08326550863154258
rclavicle -6.567057705042829E-16 -4.814611747822775E-16
rhumerus -23.57067687523488 -18.88736648735198 -74.81813771338742
rradius 27.04277359047802
rwrist 6.561486481575805
rhand -15.73784731659436 20.908608860522552
rfingers 7.125020000000031
rthumb 10.430435956536197 -8.560751037400681
lclavicle -6.526950164815646E-16 -3.264915556601415E-16
lhumerus -29.47252680516354 1.4724561666067668 77.73994943912268
lradius 28.79545133490269
lwrist 3.0142418719167257
lhand -23.616378883298687 23.330007685489328
lfingers 7.1250200000000365
lthumb 2.794402567219155 52.985125763973045
rfemur -1.4817144290021673 -9.378666273879006 12.790911028161105
rtibia 39.041546789954566
rfoot -9.1241827981653 -8.35327087774517
rtoes 6.585889298481646
lfemur -14.427880012522522 -0.45758550457690284 -20.82833447196166
ltibia 34.394258425322036
lfoot -9.24030913499346 -0.33946201450302027
ltoes -1.9672274522648223
281
root 0 0 0 -0.8803291843525258 -2.799026768117244 -2.48747423511971
lowerback 9.328077197988048 0.3511322009471336 0.6531120422613821
upperback -0.06701058108239799 0.6821197168939556 1.743315314042101
thorax -5.1996366497865 0.35502399372336363 1.3708575941925227
lowerneck -16.441053249821543 -2.9583888868659787 -1.9309420567842897
upperneck 19.90135600578857 -3.7923831937315042 0.7058512184092232
head 9.054301230803373 -1.8407023869676071 0.08326498949589511
rclavicle -6.567041174489221E-16 -4.814610587201311E-16
rhumerus -23.57062729540194 -18.887370865291174 -74.81811362197726
rradius 27.042773355730905
rwrist 6.561511303881421
rhand -15.737829250315361 20.908593563653085
rfingers 7.125020000000031
rthumb 10.430453095209227 -8.560763769376948
lclavicle -6.526981690274251E-16 -3.264908178650633E-16
lhumerus -29.47256693336587 1.4724515565421576 77.7400081051031
lradius 28.79543840044017
lwrist 3.0142665056447697
lhand -23.616426861748042 23.330008203096106
lfingers 7.1250200000000365
lthumb 2.7943561769767875 52.985131901262676
rfemur -1.4813174446707507 -9.37911131077405 12.790488434279524
rtibia 39.04148558930929
rfoot -9.124252592130018 -8.35333191882972
rtoes 6.585952454599607
lfemur -14.427945220346913 -0.45756578246622936 -20.82834914742844
ltibia 34.39428659080402
lfoot -9.240326136475236 -0.339431310041757
ltoes -1.9672040698783118
282
root 0 0 0 -0.8803520298619105 -2.799009201167273 -2.487463389359821
lowerback 9.32808690960145 0.35113039525098744 0.6531106216873619
upperback -0.06700349434508723 0.6821169095256171 1.7433157416180234
thorax -5.199635283826583 0.3550226578735056 1.370858404916377
lowerneck -16.441056325019566 -2.9583920714665037 -1.9309447604425531
upperneck 19.901354433903983 -3.792387140377816 0.7058491495136865
head 9.054301044305504 -1.840704472975041 0.08326443683808826
rclavicle -6.567025203046897E-16 -4.814609623950724E-16
rhumerus -23.570577573146196 -18.887375297374664 -74.81808892707524
rradius 27.042773208908535
rwrist 6.561536110952666
rhand -15.737810889119851 20.908578059806754
rfingers 7.125020000000031
rthumb 10.430470532418603 -8.56077669838057
lclavicle -6.527011359241634E-16 -3.264901046001985E-16
lhumerus -29.472605187657948 1.4724471066047622 77.74006422343736
lradius 28.7954261058801
lwrist 3.0142901148125425
lhand -23.616472638502273 23.3300086431139
lfingers 7.1250200000000365
lthumb 2.794311923671323 52.98513770302034
rfemur -1.480943062334049 -9.379530330187876 12.790090860505686
rtibia 39.041426083995766
rfoot -9.12431883569363 -8.353389472194143
rtoes 6.586011457689633
lfemur -14.428008041004489 -0.4575467696574762 -20.82836329320194
ltibia 34.39431379142273
lfoot -9.240342451686098 -0.3394017315717761
ltoes -1.9671815675828679
